<mxfile host="app.diagrams.net" modified="2022-04-29T14:24:24.231Z" agent="5.0 (Windows NT 10.0; Win64; x64) AppleWebKit/537.36 (KHTML, like Gecko) Chrome/103.0.9999.0 Safari/537.36" etag="Y3UJJDipJKzwVr36znOv" version="17.4.6" type="github" pages="3">
  <diagram id="C5RBs43oDa-KdzZeNtuy" name="Algo 1">
    <mxGraphModel dx="1422" dy="800" grid="1" gridSize="10" guides="1" tooltips="1" connect="1" arrows="1" fold="1" page="1" pageScale="1" pageWidth="827" pageHeight="1169" math="0" shadow="0">
      <root>
        <mxCell id="WIyWlLk6GJQsqaUBKTNV-0" />
        <mxCell id="WIyWlLk6GJQsqaUBKTNV-1" parent="WIyWlLk6GJQsqaUBKTNV-0" />
        <mxCell id="pZSuN6LD8dpPZFum332B-4" style="edgeStyle=orthogonalEdgeStyle;rounded=0;orthogonalLoop=1;jettySize=auto;html=1;exitX=0.5;exitY=1;exitDx=0;exitDy=0;entryX=0.5;entryY=0;entryDx=0;entryDy=0;" edge="1" parent="WIyWlLk6GJQsqaUBKTNV-1" source="pZSuN6LD8dpPZFum332B-0" target="pZSuN6LD8dpPZFum332B-2">
          <mxGeometry relative="1" as="geometry" />
        </mxCell>
        <mxCell id="pZSuN6LD8dpPZFum332B-0" value="&lt;font style=&quot;vertical-align: inherit&quot;&gt;&lt;font style=&quot;vertical-align: inherit&quot;&gt;&lt;font style=&quot;vertical-align: inherit&quot;&gt;&lt;font style=&quot;vertical-align: inherit&quot;&gt;START&lt;/font&gt;&lt;/font&gt;&lt;/font&gt;&lt;/font&gt;" style="ellipse;whiteSpace=wrap;html=1;" vertex="1" parent="WIyWlLk6GJQsqaUBKTNV-1">
          <mxGeometry x="356.5" width="90" height="70" as="geometry" />
        </mxCell>
        <mxCell id="pZSuN6LD8dpPZFum332B-1" value="&lt;font style=&quot;vertical-align: inherit&quot;&gt;&lt;font style=&quot;vertical-align: inherit&quot;&gt;&lt;font style=&quot;vertical-align: inherit&quot;&gt;&lt;font style=&quot;vertical-align: inherit&quot;&gt;END&lt;/font&gt;&lt;/font&gt;&lt;/font&gt;&lt;/font&gt;" style="ellipse;whiteSpace=wrap;html=1;" vertex="1" parent="WIyWlLk6GJQsqaUBKTNV-1">
          <mxGeometry x="356.5" y="560" width="90" height="60" as="geometry" />
        </mxCell>
        <mxCell id="-v6C0qDtaVEUsh2g5nep-1" style="edgeStyle=orthogonalEdgeStyle;rounded=0;orthogonalLoop=1;jettySize=auto;html=1;entryX=0.5;entryY=0;entryDx=0;entryDy=0;fontFamily=Helvetica;fontSize=12;" edge="1" parent="WIyWlLk6GJQsqaUBKTNV-1" source="pZSuN6LD8dpPZFum332B-2" target="pZSuN6LD8dpPZFum332B-3">
          <mxGeometry relative="1" as="geometry" />
        </mxCell>
        <mxCell id="pZSuN6LD8dpPZFum332B-2" value="User types 3 letters&lt;br&gt;&amp;nbsp;in the search bar" style="shape=parallelogram;perimeter=parallelogramPerimeter;whiteSpace=wrap;html=1;fixedSize=1;" vertex="1" parent="WIyWlLk6GJQsqaUBKTNV-1">
          <mxGeometry x="326.5" y="120" width="150" height="60" as="geometry" />
        </mxCell>
        <mxCell id="pZSuN6LD8dpPZFum332B-7" style="edgeStyle=orthogonalEdgeStyle;rounded=0;orthogonalLoop=1;jettySize=auto;html=1;exitX=0.5;exitY=1;exitDx=0;exitDy=0;" edge="1" parent="WIyWlLk6GJQsqaUBKTNV-1" source="pZSuN6LD8dpPZFum332B-3" target="pZSuN6LD8dpPZFum332B-6">
          <mxGeometry relative="1" as="geometry">
            <mxPoint x="385" y="390" as="targetPoint" />
          </mxGeometry>
        </mxCell>
        <mxCell id="-v6C0qDtaVEUsh2g5nep-0" style="edgeStyle=orthogonalEdgeStyle;rounded=0;orthogonalLoop=1;jettySize=auto;html=1;fontFamily=Helvetica;fontSize=12;" edge="1" parent="WIyWlLk6GJQsqaUBKTNV-1" source="pZSuN6LD8dpPZFum332B-3" target="pZSuN6LD8dpPZFum332B-9">
          <mxGeometry relative="1" as="geometry" />
        </mxCell>
        <mxCell id="pZSuN6LD8dpPZFum332B-3" value="if research in title,&lt;br&gt;&amp;nbsp;ingredient &lt;br&gt;or description" style="rhombus;whiteSpace=wrap;html=1;" vertex="1" parent="WIyWlLk6GJQsqaUBKTNV-1">
          <mxGeometry x="340" y="260" width="123" height="130" as="geometry" />
        </mxCell>
        <mxCell id="-v6C0qDtaVEUsh2g5nep-3" style="edgeStyle=orthogonalEdgeStyle;rounded=0;orthogonalLoop=1;jettySize=auto;html=1;fontFamily=Helvetica;fontSize=12;exitX=0.5;exitY=1;exitDx=0;exitDy=0;" edge="1" parent="WIyWlLk6GJQsqaUBKTNV-1" source="pZSuN6LD8dpPZFum332B-9" target="pZSuN6LD8dpPZFum332B-1">
          <mxGeometry relative="1" as="geometry">
            <Array as="points">
              <mxPoint x="606" y="530" />
              <mxPoint x="402" y="530" />
            </Array>
          </mxGeometry>
        </mxCell>
        <mxCell id="pZSuN6LD8dpPZFum332B-9" value="Show&amp;nbsp;no recipe matches" style="shape=parallelogram;perimeter=parallelogramPerimeter;whiteSpace=wrap;html=1;fixedSize=1;" vertex="1" parent="WIyWlLk6GJQsqaUBKTNV-1">
          <mxGeometry x="520" y="297.5" width="172" height="55" as="geometry" />
        </mxCell>
        <mxCell id="-v6C0qDtaVEUsh2g5nep-2" style="edgeStyle=orthogonalEdgeStyle;rounded=0;orthogonalLoop=1;jettySize=auto;html=1;entryX=0.5;entryY=0;entryDx=0;entryDy=0;fontFamily=Helvetica;fontSize=12;" edge="1" parent="WIyWlLk6GJQsqaUBKTNV-1" source="pZSuN6LD8dpPZFum332B-6" target="pZSuN6LD8dpPZFum332B-1">
          <mxGeometry relative="1" as="geometry" />
        </mxCell>
        <mxCell id="pZSuN6LD8dpPZFum332B-6" value="Show recipes" style="shape=parallelogram;perimeter=parallelogramPerimeter;whiteSpace=wrap;html=1;fixedSize=1;" vertex="1" parent="WIyWlLk6GJQsqaUBKTNV-1">
          <mxGeometry x="341.5" y="450" width="120" height="60" as="geometry" />
        </mxCell>
        <mxCell id="7DR16xuCr311z3-0efNk-2" style="edgeStyle=orthogonalEdgeStyle;rounded=0;orthogonalLoop=1;jettySize=auto;html=1;exitX=0.5;exitY=1;exitDx=0;exitDy=0;fontFamily=Helvetica;fontSize=12;" edge="1" parent="WIyWlLk6GJQsqaUBKTNV-1" source="pZSuN6LD8dpPZFum332B-3" target="pZSuN6LD8dpPZFum332B-3">
          <mxGeometry relative="1" as="geometry" />
        </mxCell>
      </root>
    </mxGraphModel>
  </diagram>
  <diagram id="Og9H0QL59GYEpqAu3tgH" name="Algo 2">
    <mxGraphModel dx="1422" dy="800" grid="1" gridSize="10" guides="1" tooltips="1" connect="1" arrows="1" fold="1" page="1" pageScale="1" pageWidth="827" pageHeight="1169" math="0" shadow="0">
      <root>
        <mxCell id="0" />
        <mxCell id="1" parent="0" />
      </root>
    </mxGraphModel>
  </diagram>
  <diagram id="IyNk48mdgvWls6Cq7yBo" name="Algo 1 complet">
    <mxGraphModel dx="1422" dy="800" grid="1" gridSize="10" guides="1" tooltips="1" connect="1" arrows="1" fold="1" page="1" pageScale="1" pageWidth="827" pageHeight="1169" math="0" shadow="0">
      <root>
        <mxCell id="0" />
        <mxCell id="1" parent="0" />
        <mxCell id="2jTUx4ZbpJxEsX1oE6WJ-1" style="edgeStyle=orthogonalEdgeStyle;rounded=0;orthogonalLoop=1;jettySize=auto;html=1;exitX=0.5;exitY=1;exitDx=0;exitDy=0;entryX=0.5;entryY=0;entryDx=0;entryDy=0;" edge="1" parent="1" source="2jTUx4ZbpJxEsX1oE6WJ-2" target="2jTUx4ZbpJxEsX1oE6WJ-4">
          <mxGeometry relative="1" as="geometry" />
        </mxCell>
        <mxCell id="2jTUx4ZbpJxEsX1oE6WJ-2" value="&lt;font style=&quot;vertical-align: inherit&quot;&gt;&lt;font style=&quot;vertical-align: inherit&quot;&gt;&lt;font style=&quot;vertical-align: inherit&quot;&gt;&lt;font style=&quot;vertical-align: inherit&quot;&gt;START&lt;/font&gt;&lt;/font&gt;&lt;/font&gt;&lt;/font&gt;" style="ellipse;whiteSpace=wrap;html=1;" vertex="1" parent="1">
          <mxGeometry x="356.5" width="90" height="70" as="geometry" />
        </mxCell>
        <mxCell id="2jTUx4ZbpJxEsX1oE6WJ-3" value="&lt;font style=&quot;vertical-align: inherit&quot;&gt;&lt;font style=&quot;vertical-align: inherit&quot;&gt;&lt;font style=&quot;vertical-align: inherit&quot;&gt;&lt;font style=&quot;vertical-align: inherit&quot;&gt;END&lt;/font&gt;&lt;/font&gt;&lt;/font&gt;&lt;/font&gt;" style="ellipse;whiteSpace=wrap;html=1;" vertex="1" parent="1">
          <mxGeometry x="356.5" y="1010" width="90" height="60" as="geometry" />
        </mxCell>
        <mxCell id="2jTUx4ZbpJxEsX1oE6WJ-4" value="User types 3 letters&lt;br&gt;&amp;nbsp;in the search bar" style="shape=parallelogram;perimeter=parallelogramPerimeter;whiteSpace=wrap;html=1;fixedSize=1;" vertex="1" parent="1">
          <mxGeometry x="326.5" y="120" width="150" height="60" as="geometry" />
        </mxCell>
        <mxCell id="2jTUx4ZbpJxEsX1oE6WJ-5" style="edgeStyle=orthogonalEdgeStyle;rounded=0;orthogonalLoop=1;jettySize=auto;html=1;exitX=0.5;exitY=1;exitDx=0;exitDy=0;" edge="1" parent="1" source="2jTUx4ZbpJxEsX1oE6WJ-6" target="2jTUx4ZbpJxEsX1oE6WJ-10">
          <mxGeometry relative="1" as="geometry">
            <mxPoint x="385" y="390" as="targetPoint" />
          </mxGeometry>
        </mxCell>
        <mxCell id="2jTUx4ZbpJxEsX1oE6WJ-6" value="if research in title,&lt;br&gt;&amp;nbsp;ingredient &lt;br&gt;or description" style="rhombus;whiteSpace=wrap;html=1;" vertex="1" parent="1">
          <mxGeometry x="340" y="410" width="123" height="130" as="geometry" />
        </mxCell>
        <mxCell id="2jTUx4ZbpJxEsX1oE6WJ-7" style="edgeStyle=orthogonalEdgeStyle;rounded=0;orthogonalLoop=1;jettySize=auto;html=1;" edge="1" parent="1" source="2jTUx4ZbpJxEsX1oE6WJ-10" target="2jTUx4ZbpJxEsX1oE6WJ-3">
          <mxGeometry relative="1" as="geometry" />
        </mxCell>
        <mxCell id="2jTUx4ZbpJxEsX1oE6WJ-8" style="edgeStyle=orthogonalEdgeStyle;rounded=0;orthogonalLoop=1;jettySize=auto;html=1;exitX=0.5;exitY=1;exitDx=0;exitDy=0;entryX=0.5;entryY=0;entryDx=0;entryDy=0;startArrow=none;" edge="1" parent="1" source="2jTUx4ZbpJxEsX1oE6WJ-10" target="2jTUx4ZbpJxEsX1oE6WJ-3">
          <mxGeometry relative="1" as="geometry">
            <mxPoint x="600" y="370" as="sourcePoint" />
            <Array as="points">
              <mxPoint x="402" y="570" />
            </Array>
          </mxGeometry>
        </mxCell>
        <mxCell id="2jTUx4ZbpJxEsX1oE6WJ-9" value="Show&amp;nbsp;no recipe matches" style="shape=parallelogram;perimeter=parallelogramPerimeter;whiteSpace=wrap;html=1;fixedSize=1;" vertex="1" parent="1">
          <mxGeometry x="670" y="530" width="172" height="55" as="geometry" />
        </mxCell>
        <mxCell id="2jTUx4ZbpJxEsX1oE6WJ-10" value="Show recipes" style="shape=parallelogram;perimeter=parallelogramPerimeter;whiteSpace=wrap;html=1;fixedSize=1;" vertex="1" parent="1">
          <mxGeometry x="343" y="830" width="120" height="60" as="geometry" />
        </mxCell>
        <mxCell id="2jTUx4ZbpJxEsX1oE6WJ-11" value="" style="edgeStyle=orthogonalEdgeStyle;rounded=0;orthogonalLoop=1;jettySize=auto;html=1;exitX=0.5;exitY=1;exitDx=0;exitDy=0;endArrow=none;" edge="1" parent="1" source="2jTUx4ZbpJxEsX1oE6WJ-9">
          <mxGeometry relative="1" as="geometry">
            <mxPoint x="606" y="330" as="sourcePoint" />
            <mxPoint x="400" y="1000" as="targetPoint" />
            <Array as="points">
              <mxPoint x="746" y="960" />
              <mxPoint x="400" y="960" />
            </Array>
          </mxGeometry>
        </mxCell>
        <mxCell id="2jTUx4ZbpJxEsX1oE6WJ-12" value="For&amp;nbsp;&amp;nbsp;&lt;br&gt;let i =0&lt;br&gt;i&amp;lt;recipes&amp;lt;.length&lt;br&gt;i++" style="rounded=0;whiteSpace=wrap;html=1;fontFamily=Helvetica;fontSize=12;" vertex="1" parent="1">
          <mxGeometry x="340" y="340" width="120" height="60" as="geometry" />
        </mxCell>
        <mxCell id="2jTUx4ZbpJxEsX1oE6WJ-13" style="edgeStyle=orthogonalEdgeStyle;rounded=0;orthogonalLoop=1;jettySize=auto;html=1;exitX=0.5;exitY=1;exitDx=0;exitDy=0;fontFamily=Helvetica;fontSize=12;" edge="1" parent="1" source="2jTUx4ZbpJxEsX1oE6WJ-6" target="2jTUx4ZbpJxEsX1oE6WJ-6">
          <mxGeometry relative="1" as="geometry" />
        </mxCell>
        <mxCell id="2jTUx4ZbpJxEsX1oE6WJ-14" value="Do while(loop)" style="rounded=0;whiteSpace=wrap;html=1;fontFamily=Helvetica;fontSize=12;" vertex="1" parent="1">
          <mxGeometry x="340" y="200" width="120" height="60" as="geometry" />
        </mxCell>
        <mxCell id="2jTUx4ZbpJxEsX1oE6WJ-15" value="let loop = false" style="rounded=0;whiteSpace=wrap;html=1;fontFamily=Helvetica;fontSize=12;" vertex="1" parent="1">
          <mxGeometry x="340" y="270" width="120" height="60" as="geometry" />
        </mxCell>
      </root>
    </mxGraphModel>
  </diagram>
</mxfile>
